<?xml version="1.0" ?><svg viewBox="0 0 64 64" xmlns="http://www.w3.org/2000/svg"><g id="a"/><g id="b"/><g id="c"/><g id="d"/><g id="e"/><g id="f"/><g id="g"><path d="M56.75,13.11h-7.41c-1.89,0-3.43,1.54-3.43,3.43s1.54,3.42,3.43,3.42h2.97c.62,0,1.13,.51,1.13,1.13s-.51,1.13-1.13,1.13h-2.81c-3.45-1.79-7.5-2.72-12.04-2.72-4,0-7.91,.75-11.57,1.92-1.53-1.38-7.12-5.71-16.79-5.71h-.11c-5.01,.02-5.01,3.49-5.01,4.8V55.42c0,2.58,2.4,4.54,4.54,4.54H55.46c2.17,0,4.54-1.96,4.54-4.54,0-16.97,.15-20.5-.49-22.11-.36-.91-.82-1.79-1.31-2.66,1.06-.54,1.8-1.6,1.8-2.87v-11.42c0-1.79-1.46-3.24-3.25-3.24Zm-1.31,7.98c0-1.73-1.4-3.13-3.13-3.13h-2.97c-.79,0-1.43-.64-1.43-1.42s.64-1.43,1.43-1.43h7.41c.69,0,1.25,.56,1.25,1.24v11.42c0,.69-.56,1.24-1.25,1.24h-18.11c-1.32,0-2.4-1.08-2.4-2.4s1.08-2.4,2.4-2.4h13.68c1.73,0,3.13-1.4,3.13-3.13Zm-11.66,1.13h-5.14c-2.43,0-4.4,1.98-4.4,4.4s1.97,4.4,4.4,4.4h17.43c.6,.98,1.16,1.98,1.57,3.02,.28,.69,.33,2.96,.35,4.5h-5.2s-.01,0-.02,0H6.04c.11-1.42,.44-2.57,.95-3.23,2.32-3.04,15.31-13.81,30.49-13.81,2.25,0,4.35,.25,6.31,.72Zm3.83,18.32h4.71l5.67,6.04v8.83c0,.44-.15,.84-.35,1.2l-10.03-16.08Zm10.38,3.12l-2.92-3.12h2.92v3.12Zm-29.71-3.12l-2.04,17.41h-6.69l5.8-17.42h2.93Zm2.01,0h3.4l2.04,17.41h-7.48l2.04-17.41Zm5.42,0h2.93l5.8,17.41h-6.69l-2.04-17.41ZM6.35,56.62c-.2-.36-.35-.76-.35-1.2v-8.83l5.68-6.05h4.71L6.35,56.62Zm-.35-16.09h2.93l-2.93,3.13v-3.13Zm3.01-22.83h.1c7.54,0,12.42,2.89,14.55,4.48-8.29,3.1-14.95,8.15-17.66,11.19v-12.88c0-1.43,0-2.79,3.01-2.8Zm-1.07,40.13l10.8-17.3h4.5l-5.8,17.42H8.54c-.21,0-.39-.07-.59-.12Zm38.6,.12l-5.8-17.41h4.51l10.79,17.29c-.19,.05-.38,.12-.59,.12h-8.92Z"/><path d="M42.57,11.34c0-1.85-1.51-3.36-3.36-3.36s-3.36,1.51-3.36,3.36,1.51,3.36,3.36,3.36,3.36-1.51,3.36-3.36Zm-3.36,1.36c-.75,0-1.36-.61-1.36-1.36s.61-1.36,1.36-1.36,1.36,.61,1.36,1.36-.61,1.36-1.36,1.36Z"/><path d="M40.21,6.42v-1.37c0-.55-.45-1-1-1s-1,.45-1,1v1.37c0,.55,.45,1,1,1s1-.45,1-1Z"/><path d="M38.21,16.27v1.37c0,.55,.45,1,1,1s1-.45,1-1v-1.37c0-.55-.45-1-1-1s-1,.45-1,1Z"/><path d="M46.5,11.34c0-.55-.45-1-1-1h-1.37c-.55,0-1,.45-1,1s.45,1,1,1h1.37c.55,0,1-.45,1-1Z"/><path d="M31.92,11.34c0,.55,.45,1,1,1h1.37c.55,0,1-.45,1-1s-.45-1-1-1h-1.37c-.55,0-1,.45-1,1Z"/><path d="M43.4,8.57l.97-.97c.39-.39,.39-1.02,0-1.41-.39-.39-1.02-.39-1.41,0l-.97,.97c-.39,.39-.39,1.02,0,1.41,.2,.2,.45,.29,.71,.29s.51-.1,.71-.29Z"/><path d="M34.76,16.79c.26,0,.51-.1,.71-.29l.97-.97c.39-.39,.39-1.02,0-1.41s-1.02-.39-1.41,0l-.97,.97c-.39,.39-.39,1.02,0,1.41,.2,.2,.45,.29,.71,.29Z"/><path d="M42.95,16.5c.2,.2,.45,.29,.71,.29s.51-.1,.71-.29c.39-.39,.39-1.02,0-1.41l-.97-.97c-.39-.39-1.02-.39-1.41,0s-.39,1.02,0,1.41l.97,.97Z"/><path d="M35.72,8.86c.26,0,.51-.1,.71-.29,.39-.39,.39-1.02,0-1.41l-.97-.97c-.39-.39-1.02-.39-1.41,0-.39,.39-.39,1.02,0,1.41l.97,.97c.2,.2,.45,.29,.71,.29Z"/><path d="M7.64,49.48c-.07-.02-.15-.03-.23-.03-.46,0-.87,.32-.97,.77-.12,.53,.21,1.08,.75,1.2s1.08-.21,1.2-.74-.21-1.08-.74-1.2Z"/><path d="M9.96,45.87c-.53-.12-1.08,.21-1.2,.74-.02,.08-.03,.15-.03,.23,0,.46,.32,.87,.77,.97,.53,.12,1.08-.21,1.2-.75,.02-.07,.03-.15,.03-.23,0-.46-.32-.87-.77-.98Z"/><path d="M12.19,42.24c-.54-.07-1.05,.32-1.12,.86-.07,.54,.32,1.05,.86,1.12,.54,.07,1.05-.32,1.12-.86,.07-.54-.32-1.05-.86-1.12Z"/><circle cx="23.79" cy="55.07" r="1"/><path d="M24.54,52.18c.54,.05,1.04-.35,1.09-.9,.05-.54-.35-1.04-.9-1.09-.03,0-.07,0-.1,0-.51,0-.94,.39-.99,.9,0,.03,0,.07,0,.1,0,.51,.39,.95,.9,1Z"/><path d="M25.49,48.3c.55,0,1-.45,1-1s-.45-1-1-1-1,.45-1,1c0,.55,.45,1,1,1Z"/><circle cx="26.33" cy="43.42" r="1"/><circle cx="40.21" cy="55.07" r="1"/><circle cx="39.36" cy="51.19" r="1"/><circle cx="38.51" cy="47.3" r="1"/><circle cx="37.67" cy="43.42" r="1"/><path d="M56.37,49.49c-.54,.13-.87,.66-.74,1.2,.13,.54,.66,.87,1.2,.74,.54-.13,.87-.66,.75-1.2-.13-.54-.66-.87-1.2-.74Z"/><path d="M54.04,45.88c-.54,.12-.87,.66-.75,1.2,.13,.54,.66,.87,1.2,.74,.54-.13,.87-.66,.75-1.2-.13-.54-.66-.87-1.2-.74Z"/><path d="M51.81,42.25c-.55,.07-.93,.57-.86,1.12,.07,.55,.57,.93,1.12,.86,.55-.07,.93-.57,.86-1.12s-.57-.93-1.12-.86Z"/></g><g id="h"/><g id="i"/><g id="j"/><g id="k"/><g id="l"/><g id="m"/><g id="n"/><g id="o"/><g id="p"/><g id="q"/><g id="r"/><g id="s"/><g id="t"/><g id="u"/><g id="v"/><g id="w"/><g id="x"/><g id="y"/><g id="a`"/><g id="aa"/><g id="ab"/><g id="ac"/><g id="ad"/><g id="ae"/><g id="af"/><g id="ag"/><g id="ah"/><g id="ai"/><g id="aj"/><g id="ak"/><g id="al"/><g id="am"/><g id="an"/><g id="ao"/><g id="ap"/><g id="aq"/><g id="ar"/><g id="as"/><g id="at"/><g id="au"/><g id="av"/><g id="aw"/><g id="ax"/></svg>